<?xml version="1.0" encoding="utf-8"?>
<!-- Generator: Adobe Illustrator 22.1.0, SVG Export Plug-In . SVG Version: 6.00 Build 0)  -->
<svg version="1.1" xmlns="http://www.w3.org/2000/svg" xmlns:xlink="http://www.w3.org/1999/xlink" x="0px" y="0px"
	 viewBox="0 0 94.6 36.3" style="enable-background:new 0 0 94.6 36.3;" xml:space="preserve">
<style type="text/css">
	.st0{fill:url(#main_part_1_);stroke:url(#main_part_9_);stroke-width:0.15;stroke-miterlimit:10;}
	.st1{fill:none;stroke:#000000;stroke-width:0.1;stroke-miterlimit:10;}
	.st2{fill:none;stroke:url(#SVGID_1_);stroke-width:0.1;stroke-miterlimit:10;}
	.st3{fill:none;stroke:url(#SVGID_2_);stroke-width:0.1;stroke-miterlimit:10;}
	.st4{fill:none;stroke:url(#SVGID_3_);stroke-width:0.1;stroke-miterlimit:10;}
	.st5{fill:none;stroke:url(#SVGID_4_);stroke-width:0.1;stroke-miterlimit:10;}
	.st6{fill:#000C55;}
	.st7{font-family:'Lovely-Home';}
	.st8{font-size:19.3351px;}
	.st9{font-family:'Verdana';}
	.st10{font-size:12.9209px;}
	.st11{fill:url(#main_part_10_);stroke:url(#main_part_11_);stroke-width:0.15;stroke-miterlimit:10;}
	.st12{fill:none;stroke:url(#SVGID_5_);stroke-width:0.1;stroke-miterlimit:10;}
	.st13{fill:none;stroke:url(#SVGID_6_);stroke-width:0.1;stroke-miterlimit:10;}
	.st14{fill:none;stroke:url(#SVGID_7_);stroke-width:0.1;stroke-miterlimit:10;}
	.st15{fill:none;stroke:url(#SVGID_8_);stroke-width:0.1;stroke-miterlimit:10;}
	.st16{fill:url(#main_part_12_);stroke:url(#main_part_13_);stroke-width:0.15;stroke-miterlimit:10;}
	.st17{fill:none;stroke:url(#SVGID_9_);stroke-width:0.1;stroke-miterlimit:10;}
	.st18{fill:none;stroke:url(#SVGID_10_);stroke-width:0.1;stroke-miterlimit:10;}
	.st19{fill:none;stroke:url(#SVGID_11_);stroke-width:0.1;stroke-miterlimit:10;}
	.st20{fill:none;stroke:url(#SVGID_12_);stroke-width:0.1;stroke-miterlimit:10;}
	.st21{fill:url(#main_part_14_);stroke:url(#main_part_15_);stroke-width:0.15;stroke-miterlimit:10;}
	.st22{fill:none;stroke:url(#SVGID_13_);stroke-width:0.1;stroke-miterlimit:10;}
	.st23{fill:none;stroke:url(#SVGID_14_);stroke-width:0.1;stroke-miterlimit:10;}
	.st24{fill:none;stroke:url(#SVGID_15_);stroke-width:0.1;stroke-miterlimit:10;}
	.st25{fill:none;stroke:url(#SVGID_16_);stroke-width:0.1;stroke-miterlimit:10;}
</style>
<g id="logo_with_text_bottom">
	<g id="logo_bottom_left">
		<g id="logo_1_">
			<linearGradient id="main_part_1_" gradientUnits="userSpaceOnUse" x1="25.7482" y1="19.5408" x2="25.6972" y2="-0.705">
				<stop  offset="0" style="stop-color:#FFFFFF;stop-opacity:0"/>
				<stop  offset="0.697" style="stop-color:#000C55"/>
			</linearGradient>
			<linearGradient id="main_part_9_" gradientUnits="userSpaceOnUse" x1="25.7128" y1="19.6512" x2="25.7128" y2="0.175">
				<stop  offset="0.1248" style="stop-color:#FFFFFF;stop-opacity:0"/>
				<stop  offset="0.5733" style="stop-color:#000000"/>
			</linearGradient>
			<polyline id="main_part" class="st0" points="9.7,19.4 9.6,16.5 9,14.6 9.6,14.1 9.6,9 9,7.8 9,6.6 8.6,5.5 9.1,5 9,3.1 9,1.7 
				9.5,1.7 9.5,0.9 10,0.9 10,1.3 10.5,1.3 10.5,0.6 11.2,0.6 11.2,1 11.6,1 11.6,0.2 12.9,0.2 12.9,1.7 13.2,1.7 13.2,0.2 
				13.8,0.2 13.8,1.7 14.2,1.7 14.2,0.2 15.4,0.2 15.4,1 15.9,1 15.9,0.6 16.6,0.6 16.6,1.3 17.1,1.3 17.1,0.9 17.6,0.9 17.6,1.7 
				18.1,1.7 18.1,3.1 17.9,5 18.4,5.5 18.1,6.6 18.1,7.8 17.5,8.8 19.3,8.8 19.3,9.7 21,9.7 21,11.1 22.8,11.1 22.8,9.7 24.7,9.7 
				24.7,8.8 26.5,8.8 26.5,9.7 28.3,9.7 28.3,11.1 30.1,11.1 30.1,9.7 31.9,9.7 31.9,8.8 33.9,8.8 33.4,7.8 33.4,6.6 33,5.5 33.5,5 
				33.3,3.1 33.3,1.7 33.8,1.7 33.8,0.9 34.3,0.9 34.3,1.3 34.8,1.3 34.8,0.6 35.6,0.6 35.6,1 36,1 36,0.2 37.2,0.2 37.2,1.7 
				37.6,1.7 37.6,0.2 38.2,0.2 38.2,1.7 38.6,1.7 38.6,0.2 39.8,0.2 39.8,1 40.2,1 40.2,0.6 41,0.6 41,1.3 41.5,1.3 41.5,0.9 
				41.9,0.9 41.9,1.7 42.5,1.7 42.5,3.1 42.3,5 42.8,5.5 42.4,6.6 42.4,7.8 41.8,9 41.8,14 42.4,14.6 41.8,16.5 41.8,19.4 
				41.8,19.7 			"/>
			<polyline class="st1" points="33.3,3.1 36.1,1.7 39.7,1.7 42.5,3.1 			"/>
			<polyline class="st1" points="9,3.1 11.8,1.7 15.3,1.7 18.1,3.1 			"/>
			<g id="left_part_of_column">
				<linearGradient id="SVGID_1_" gradientUnits="userSpaceOnUse" x1="11.7667" y1="16.688" x2="11.7667" y2="1.6785">
					<stop  offset="0.1248" style="stop-color:#FFFFFF;stop-opacity:0"/>
					<stop  offset="0.6489" style="stop-color:#000000"/>
				</linearGradient>
				<line class="st2" x1="11.8" y1="16.7" x2="11.8" y2="1.7"/>
				<linearGradient id="SVGID_2_" gradientUnits="userSpaceOnUse" x1="15.2854" y1="12.182" x2="15.2854" y2="1.6785">
					<stop  offset="0.1248" style="stop-color:#FFFFFF;stop-opacity:0"/>
					<stop  offset="0.6489" style="stop-color:#000000"/>
				</linearGradient>
				<line class="st3" x1="15.3" y1="12.2" x2="15.3" y2="1.7"/>
				<polyline class="st1" points="9,7.8 11.8,6.4 15.3,6.4 18,7.8 				"/>
				<polyline class="st1" points="8.6,5.5 11.8,4.1 15.3,4.1 18.4,5.5 				"/>
			</g>
			<g id="right_part_of_column">
				<linearGradient id="SVGID_3_" gradientUnits="userSpaceOnUse" x1="39.686" y1="16.688" x2="39.686" y2="1.6785">
					<stop  offset="0.1248" style="stop-color:#FFFFFF;stop-opacity:0"/>
					<stop  offset="0.6489" style="stop-color:#000000"/>
				</linearGradient>
				<line class="st4" x1="39.7" y1="16.7" x2="39.7" y2="1.7"/>
				<linearGradient id="SVGID_4_" gradientUnits="userSpaceOnUse" x1="36.1918" y1="12.2043" x2="36.1918" y2="1.7007">
					<stop  offset="0.1248" style="stop-color:#FFFFFF;stop-opacity:0"/>
					<stop  offset="0.6489" style="stop-color:#000000"/>
				</linearGradient>
				<line class="st5" x1="36.2" y1="12.2" x2="36.2" y2="1.7"/>
				<polyline class="st1" points="33.4,7.8 36.1,6.4 39.7,6.4 42.4,7.8 				"/>
				<polyline class="st1" points="33,5.5 36.1,4.1 39.7,4.1 42.8,5.5 				"/>
			</g>
		</g>
		<g id="text_2_">
			<g>
				<text transform="matrix(1 0 0 1 -2.3576 30.5122)" class="st6 st7 st8">Architecture</text>
			</g>
			<text transform="matrix(1 0 0 1 42.7395 15.2301)" class="st9 st10">London</text>
		</g>
	</g>
</g>
<g id="logo_with_text_top">
</g>
</svg>
