<?xml version="1.0" encoding="utf-8"?>
<!-- Generator: Adobe Illustrator 22.1.0, SVG Export Plug-In . SVG Version: 6.00 Build 0)  -->
<svg version="1.1" id="Layer_1" xmlns="http://www.w3.org/2000/svg" xmlns:xlink="http://www.w3.org/1999/xlink" x="0px" y="0px"
	 viewBox="0 0 602.2 602.2" style="enable-background:new 0 0 602.2 602.2;" xml:space="preserve">
<style type="text/css">
	.st0{fill:#517FA4;}
	.st1{fill:#FFFFFF;}
</style>
<g>
	<rect class="st0" width="602.2" height="602.2"/>
	<g>
		<path class="st1" d="M416.5,112.9H185.6c-40.1,0-72.7,32.6-72.7,72.7v76.8v154.1c0,40.1,32.6,72.7,72.7,72.7h230.9
			c40.1,0,72.8-32.6,72.8-72.7V262.5v-76.8C489.3,145.5,456.7,112.9,416.5,112.9z M437.4,156.3l8.3,0v8.3V220l-63.6,0.2l-0.2-63.8
			L437.4,156.3z M247.4,262.5c12.1-16.7,31.6-27.6,53.7-27.6s41.7,10.9,53.7,27.6c7.8,10.9,12.5,24.2,12.5,38.6
			c0,36.5-29.7,66.2-66.3,66.2c-36.5,0-66.3-29.7-66.3-66.2C234.8,286.7,239.6,273.4,247.4,262.5z M452.6,416.6
			c0,19.9-16.2,36.1-36.1,36.1H185.6c-19.9,0-36.1-16.2-36.1-36.1V262.5h56.2c-4.9,11.9-7.6,25-7.6,38.6
			c0,56.8,46.2,102.9,102.9,102.9c56.8,0,102.9-46.2,102.9-102.9c0-13.6-2.7-26.7-7.6-38.6h56.2V416.6z"/>
	</g>
</g>
</svg>
